<svg width="19" height="27" viewBox="0 0 19 27" fill="none" xmlns="http://www.w3.org/2000/svg">
<path d="M18.6635 9.625C18.6635 4.63142 14.6918 0.583336 9.79246 0.583336C4.89309 0.583336 0.921387 4.63142 0.921387 9.625C0.921387 11.4165 1.44098 13.0828 2.32175 14.4881H2.31161C5.30243 19.2608 9.79246 26.4167 9.79246 26.4167L17.2733 14.4881H17.2644C18.1439 13.0828 18.6635 11.4165 18.6635 9.625ZM9.79246 13.5C7.69255 13.5 5.99057 11.7653 5.99057 9.625C5.99057 7.48471 7.69255 5.75 9.79246 5.75C11.8924 5.75 13.5943 7.48471 13.5943 9.625C13.5943 11.7653 11.8924 13.5 9.79246 13.5Z" fill="#E4D9D9"/>
</svg>
