<svg width="42" height="42" viewBox="0 0 42 42" fill="none" xmlns="http://www.w3.org/2000/svg">
<circle cx="20.5802" cy="20.5802" r="13.5271" fill="url(#paint0_linear_4_39)" stroke="url(#paint1_linear_4_39)" stroke-width="2"/>
<path fill-rule="evenodd" clip-rule="evenodd" d="M20.5802 0C19.9625 0 19.4617 0.500764 19.4617 1.11849V4.69766C19.4617 5.31538 19.9625 5.81614 20.5802 5.81614C21.1979 5.81614 21.6987 5.31538 21.6987 4.69766V1.11849C21.6987 0.500765 21.1979 0 20.5802 0ZM20.5802 35.3443C19.9625 35.3443 19.4617 35.845 19.4617 36.4628V40.0419C19.4617 40.6596 19.9625 41.1604 20.5802 41.1604C21.1979 41.1604 21.6987 40.6596 21.6987 40.0419V36.4628C21.6987 35.845 21.1979 35.3443 20.5802 35.3443ZM29.3424 3.16661C29.6513 2.63165 30.3353 2.44836 30.8703 2.75722C31.4053 3.06608 31.5885 3.75014 31.2797 4.2851L29.4901 7.38475C29.1812 7.91972 28.4972 8.10301 27.9622 7.79415C27.4273 7.48528 27.244 6.80123 27.5528 6.26626L29.3424 3.16661ZM13.1982 33.3663C12.6632 33.0574 11.9791 33.2407 11.6703 33.7756L9.88069 36.8753C9.57183 37.4103 9.75512 38.0943 10.2901 38.4032C10.8251 38.712 11.5091 38.5288 11.818 37.9938L13.6076 34.8941C13.9164 34.3592 13.7331 33.6751 13.1982 33.3663ZM36.8753 9.8807C37.4103 9.57184 38.0943 9.75513 38.4032 10.2901C38.712 10.8251 38.5287 11.5091 37.9938 11.818L34.8941 13.6076C34.3592 13.9164 33.6751 13.7331 33.3662 13.1982C33.0574 12.6632 33.2407 11.9791 33.7756 11.6703L36.8753 9.8807ZM7.79415 27.9622C7.48529 27.4273 6.80123 27.244 6.26626 27.5528L3.16661 29.3424C2.63165 29.6513 2.44836 30.3353 2.75722 30.8703C3.06608 31.4053 3.75014 31.5886 4.2851 31.2797L7.38475 29.4901C7.91972 29.1813 8.10301 28.4972 7.79415 27.9622ZM40.0419 19.4617C40.6596 19.4617 41.1604 19.9625 41.1604 20.5802C41.1604 21.1979 40.6596 21.6987 40.0419 21.6987H36.4627C35.845 21.6987 35.3443 21.1979 35.3443 20.5802C35.3443 19.9625 35.845 19.4617 36.4627 19.4617H40.0419ZM5.81614 20.5802C5.81614 19.9625 5.31538 19.4617 4.69765 19.4617H1.11848C0.500759 19.4617 -5.2671e-06 19.9625 -5.2941e-06 20.5802C-5.3211e-06 21.1979 0.500759 21.6987 1.11848 21.6987H4.69765C5.31537 21.6987 5.81614 21.1979 5.81614 20.5802ZM37.9938 29.3424C38.5287 29.6513 38.712 30.3353 38.4032 30.8703C38.0943 31.4053 37.4103 31.5886 36.8753 31.2797L33.7756 29.4901C33.2407 29.1812 33.0574 28.4972 33.3662 27.9622C33.6751 27.4273 34.3592 27.244 34.8941 27.5528L37.9938 29.3424ZM7.79415 13.1982C8.10301 12.6632 7.91972 11.9791 7.38475 11.6703L4.2851 9.8807C3.75014 9.57184 3.06608 9.75513 2.75722 10.2901C2.44836 10.8251 2.63165 11.5091 3.16661 11.818L6.26626 13.6076C6.80123 13.9164 7.48529 13.7331 7.79415 13.1982ZM31.2797 36.8753C31.5886 37.4103 31.4053 38.0943 30.8703 38.4032C30.3353 38.712 29.6513 38.5287 29.3424 37.9938L27.5528 34.8941C27.244 34.3592 27.4273 33.6751 27.9622 33.3662C28.4972 33.0574 29.1812 33.2407 29.4901 33.7756L31.2797 36.8753ZM13.1982 7.79414C13.7331 7.48528 13.9164 6.80122 13.6076 6.26625L11.818 3.1666C11.5091 2.63164 10.825 2.44835 10.2901 2.75721C9.75512 3.06607 9.57183 3.75013 9.88069 4.28509L11.6703 7.38474C11.9791 7.91971 12.6632 8.103 13.1982 7.79414Z" fill="url(#paint2_linear_4_39)"/>
<defs>
<linearGradient id="paint0_linear_4_39" x1="27.6267" y1="9.84271" x2="16.2567" y2="33.2051" gradientUnits="userSpaceOnUse">
<stop offset="0.182844" stop-color="#FFE600"/>
<stop offset="0.980542" stop-color="#F09000"/>
</linearGradient>
<linearGradient id="paint1_linear_4_39" x1="14.1813" y1="5.1883" x2="31.8215" y2="47.5593" gradientUnits="userSpaceOnUse">
<stop stop-color="#FFE600"/>
<stop offset="1" stop-color="#9C8D00"/>
</linearGradient>
<linearGradient id="paint2_linear_4_39" x1="35.6798" y1="5.36875" x2="5.14502" y2="41.1604" gradientUnits="userSpaceOnUse">
<stop stop-color="#FFE600"/>
<stop offset="1" stop-color="#AA9900"/>
</linearGradient>
</defs>
</svg>
