<svg width="19" height="63" viewBox="0 0 19 63" fill="none" xmlns="http://www.w3.org/2000/svg">
<path d="M12.5924 6.24423C12.5924 4.51993 11.221 3.12211 9.52922 3.12211C7.83746 3.12211 6.46601 4.51993 6.46601 6.24423V44.2426C7.42412 43.8974 8.45515 43.7096 9.52922 43.7096C10.6033 43.7096 11.6343 43.8974 12.5924 44.2426V40.5875H11.0608C10.2149 40.5875 9.52922 39.8886 9.52922 39.0264C9.52922 38.1643 10.2149 37.4654 11.0608 37.4654H12.5924V34.3433H11.0608C10.2149 34.3433 9.52922 33.6444 9.52922 32.7822C9.52922 31.9201 10.2149 31.2211 11.0608 31.2211H12.5924V28.099H11.0608C10.2149 28.099 9.52922 27.4001 9.52922 26.538C9.52922 25.6758 10.2149 24.9769 11.0608 24.9769H12.5924V21.8548H11.0608C10.2149 21.8548 9.52922 21.1559 9.52922 20.2937C9.52922 19.4316 10.2149 18.7327 11.0608 18.7327H12.5924V15.6106H11.0608C10.2149 15.6106 9.52922 14.9117 9.52922 14.0495C9.52922 13.1874 10.2149 12.4885 11.0608 12.4885H12.5924V9.36634H11.0608C10.2149 9.36634 9.52922 8.66743 9.52922 7.80529C9.52922 6.94314 10.2149 6.24423 11.0608 6.24423H12.5924ZM3.40281 46.0946V6.24423C3.40281 2.79564 6.14569 0 9.52922 0C12.9127 0 15.6556 2.79564 15.6556 6.24423V46.0946C17.5357 47.8096 18.7188 50.302 18.7188 53.0759C18.7188 58.2488 14.6045 62.4423 9.52922 62.4423C4.45393 62.4423 0.3396 58.2488 0.3396 53.0759C0.3396 50.302 1.52277 47.8096 3.40281 46.0946ZM5.82666 48.1007C4.35382 49.2411 3.40281 51.0453 3.40281 53.0759C3.40281 56.5245 6.14569 59.3202 9.52922 59.3202C12.9127 59.3202 15.6556 56.5245 15.6556 53.0759C15.6556 51.0453 14.7046 49.2411 13.2318 48.1007C13.2138 48.0875 13.1961 48.0739 13.1787 48.06C12.1593 47.2883 10.8966 46.8317 9.52922 46.8317C8.16186 46.8317 6.89913 47.2883 5.87977 48.06C5.86236 48.0739 5.84466 48.0875 5.82666 48.1007ZM9.52922 56.1981C7.83746 56.1981 6.46601 54.8002 6.46601 53.0759C6.46601 51.3517 7.83746 49.9538 9.52922 49.9538C11.221 49.9538 12.5924 51.3517 12.5924 53.0759C12.5924 54.8002 11.221 56.1981 9.52922 56.1981Z" fill="#EFE1E1"/>
</svg>
